<svg width="18" height="18" viewBox="0 0 18 18" fill="none" xmlns="http://www.w3.org/2000/svg">
  <g clip-path="url(#clip0_1632_1451)">
    <path fill-rule="evenodd" clip-rule="evenodd" d="M5.47507 1.54143C7.15855 0.745863 9.06166 0.543183 10.8749 0.966349C12.6882 1.38951 14.305 2.41364 15.4625 3.87219C16.6199 5.33075 17.2499 7.13795 17.25 8.99995V9.75C17.25 10.5456 16.9339 11.3087 16.3713 11.8713C15.8087 12.4339 15.0457 12.75 14.25 12.75C13.4544 12.75 12.6913 12.4339 12.1287 11.8713C12.0096 11.7522 11.9016 11.6242 11.8052 11.4887C11.1183 12.2624 10.1161 12.75 9.00001 12.75C6.92894 12.75 5.25001 11.0711 5.25001 9C5.25001 6.92893 6.92894 5.25 9.00001 5.25C9.84421 5.25 10.6233 5.52896 11.25 5.99973C11.2502 5.58564 11.5859 5.25 12 5.25C12.4142 5.25 12.75 5.58579 12.75 6V9.75C12.75 10.1478 12.908 10.5294 13.1893 10.8107C13.4707 11.092 13.8522 11.25 14.25 11.25C14.6478 11.25 15.0294 11.092 15.3107 10.8107C15.592 10.5294 15.75 10.1478 15.75 9.75V9.00005V9.00005C15.7499 7.47661 15.2345 5.99796 14.2875 4.80461C13.3405 3.61124 12.0176 2.77332 10.534 2.4271C9.05045 2.08087 7.49336 2.2467 6.11597 2.89762C4.73857 3.54854 3.62188 4.64627 2.94746 6.01231C2.27304 7.37835 2.08056 8.93237 2.40132 10.4217C2.72208 11.911 3.53722 13.248 4.71418 14.2153C5.89115 15.1826 7.36073 15.7233 8.88395 15.7495C10.4072 15.7757 11.8945 15.2858 13.104 14.3595C13.4329 14.1077 13.9036 14.1701 14.1555 14.499C14.4073 14.8279 14.3449 15.2986 14.016 15.5505C12.5377 16.6825 10.7199 17.2813 8.85817 17.2493C6.99644 17.2172 5.20029 16.5564 3.76178 15.3741C2.32326 14.1919 1.32699 12.5578 0.934946 10.7375C0.542905 8.91724 0.778155 7.01788 1.60245 5.34827C2.42674 3.67867 3.79159 2.337 5.47507 1.54143ZM11.25 9C11.25 7.75736 10.2427 6.75 9.00001 6.75C7.75737 6.75 6.75001 7.75736 6.75001 9C6.75001 10.2426 7.75737 11.25 9.00001 11.25C10.2426 11.25 11.25 10.2426 11.25 9Z" fill="#3C3C3C"/>
  </g>
  <defs>
    <clipPath id="clip0_1632_1451">
      <rect width="18" height="18" fill="white"/>
    </clipPath>
  </defs>
</svg>
