<svg width="18" height="18" viewBox="0 0 18 18" fill="none" xmlns="http://www.w3.org/2000/svg">
  <g clip-path="url(#clip0_1811_741)">
    <path fill-rule="evenodd" clip-rule="evenodd" d="M17.0303 0.969672C17.2341 1.1734 17.3031 1.47582 17.2079 1.74776L11.9579 16.7478C11.8563 17.038 11.5878 17.2368 11.2806 17.2494C10.9733 17.2619 10.6895 17.0856 10.5646 16.8046L7.6818 10.3182L1.1954 7.43536C0.914389 7.31047 0.738092 7.02669 0.750627 6.71943C0.763163 6.41217 0.961991 6.1437 1.25224 6.04211L16.2522 0.792108C16.5242 0.696929 16.8266 0.765943 17.0303 0.969672ZM9.14456 9.9161L11.167 14.4667L14.7064 4.35427L9.14456 9.9161ZM13.6457 3.2936L3.53331 6.83296L8.0839 8.85544L13.6457 3.2936Z" fill="#3C3C3C"/>
  </g>
  <defs>
    <clipPath id="clip0_1811_741">
      <rect width="18" height="18" fill="white"/>
    </clipPath>
  </defs>
</svg>
